#!OML:ASF H:\Male1\Project 1\Capture day 1\Session 1\Male1.ASF
:FULLY-SPECIFIED
:DEGREES
179
root 16.7337 15.3688 -1.54179 224.037 -87.7549 -226.841
lowerback 9.83093 0.371483 -1.0851
upperback 3.88512 0.278275 0.747298
thorax -1.48715 0.0700369 1.35361
lowerneck -8.97363 4.61666 6.20732
upperneck 7.94551 6.79732 -15.1381
head 4.61111 2.65748 -5.26455
rclavicle -3.23025e-015 -3.97569e-016
rhumerus -35.6089 21.1768 -79.0662
rradius 43.218
rwrist -23.4472
rhand -17.1712 1.76192
rfingers 7.12502
rthumb 9.07011 -28.0231
lclavicle -3.23025e-015 -3.97569e-016
lhumerus 54.8374 12.8651 11.9547
lradius 61.1061
lwrist -2.98436
lhand -49.7039 -9.2384
lfingers 7.12502
lthumb -22.3049 19.4942
rfemur -2.74985 6.90934 24.7324
rtibia 25.8583
rfoot -34.2863 -30.8865
rtoes -10.0796
lfemur -8.43816 -6.63157 -16.3938
ltibia 32.4152
lfoot -19.203 14.0355
ltoes -20.1682
180
root 16.7264 15.3745 -1.52022 217.522 -87.4205 -220.213
lowerback 9.80955 0.471151 -1.30984
upperback 3.804 0.393022 0.731978
thorax -1.5643 0.128309 1.45168
lowerneck -9.09327 4.76214 6.16182
upperneck 8.24744 7.02268 -15.0088
head 4.74123 2.75729 -5.19653
rclavicle -8.94531e-016 -6.36111e-015
rhumerus -35.7107 20.6023 -79.1133
rradius 42.9852
rwrist -22.845
rhand -17.0248 1.68988
rfingers 7.12502
rthumb 9.2114 -28.0889
lclavicle -8.94531e-016 -6.36111e-015
lhumerus 55.6894 14.5505 12.2076
lradius 58.979
lwrist -2.35683
lhand -49.8599 -8.74509
lfingers 7.12502
lthumb -22.4546 19.9695
rfemur -2.90611 7.12231 24.6115
rtibia 25.9204
rfoot -33.9131 -30.9944
rtoes -11.1186
lfemur -7.87109 -7.32903 -16.5915
ltibia 31.3206
lfoot -18.5411 14.5512
ltoes -17.8948
181
root 16.7143 15.3834 -1.49299 212.11 -86.869 -214.563
lowerback 9.51356 0.573105 -1.59975
upperback 3.75802 0.509605 0.711357
thorax -1.4556 0.185846 1.58191
lowerneck -9.15543 4.88496 6.28237
upperneck 8.37572 7.20268 -15.156
head 4.82137 2.83205 -5.24878
rclavicle -3.03147e-015 8.34896e-015
rhumerus -35.7018 20.3135 -79.1915
rradius 42.7323
rwrist -22.434
rhand -16.7091 1.47072
rfingers 7.12502
rthumb 9.516 -28.2944
lclavicle -3.03147e-015 8.34896e-015
lhumerus 56.2739 16.3749 12.6597
lradius 56.2772
lwrist -1.83618
lhand -49.9741 -7.70173
lfingers 7.12502
lthumb -22.5642 20.9996
rfemur -3.20339 7.38577 24.3531
rtibia 26.0028
rfoot -33.5813 -30.8403
rtoes -11.745
lfemur -7.31462 -8.11491 -16.9351
ltibia 30.2115
lfoot -18.2711 15.3289
ltoes -15.6641
182
root 16.7078 15.3854 -1.46343 209.091 -86.2065 -211.431
lowerback 9.4097 0.663679 -1.95087
upperback 3.72111 0.601261 0.665181
thorax -1.44305 0.230413 1.72254
lowerneck -9.17744 4.98809 6.34371
upperneck 8.34954 7.33572 -15.1877
head 4.83591 2.89702 -5.25729
rclavicle 8.19987e-015 2.78299e-015
rhumerus -35.791 20.2596 -79.3966
rradius 42.5677
rwrist -22.4687
rhand -16.4545 1.44988
rfingers 7.12502
rthumb 9.76168 -28.3039
lclavicle 8.19987e-015 2.78299e-015
lhumerus 56.6287 18.2133 13.2917
lradius 53.0838
lwrist -2.14102
lhand -50.0924 -6.25241
lfingers 7.12502
lthumb -22.6778 22.4351
rfemur -3.40763 7.67487 23.9987
rtibia 26.0888
rfoot -33.4223 -30.5442
rtoes -11.7996
lfemur -6.60671 -8.87178 -17.4378
ltibia 29.1584
lfoot -18.2695 16.4947
ltoes -14.7161
183
root 16.7059 15.3857 -1.43447 204.506 -85.5447 -206.804
lowerback 9.52082 0.751528 -2.08924
upperback 3.61987 0.704172 0.628813
thorax -1.61448 0.284807 1.75073
lowerneck -9.21091 5.09686 6.4364
upperneck 8.51405 7.48439 -15.1091
head 4.90812 2.97025 -5.23501
rclavicle -2.28602e-015 3.97569e-016
rhumerus -36.0438 20.1243 -79.6871
rradius 42.5458
rwrist -22.4105
rhand -16.1377 1.29521
rfingers 7.12502
rthumb 10.0673 -28.444
lclavicle -2.28602e-015 3.97569e-016
lhumerus 56.7273 19.9195 13.9688
lradius 49.896
lwrist -2.21833
lhand -50.1403 -4.85059
lfingers 7.12502
lthumb -22.7237 23.8313
rfemur -3.57523 8.06413 23.8531
rtibia 26.1839
rfoot -33.1028 -30.4336
rtoes -12.3549
lfemur -5.8647 -9.49556 -17.7619
ltibia 28.1861
lfoot -18.4474 17.7737
ltoes -13.8248
184
root 16.6965 15.3878 -1.39786 199.215 -84.7032 -201.565
lowerback 9.65466 0.858248 -2.04226
upperback 3.5514 0.846579 0.60577
thorax -1.76452 0.358526 1.68339
lowerneck -9.2755 5.34382 6.63565
upperneck 8.63502 7.8058 -15.0423
head 4.99685 3.13195 -5.21774
rclavicle 7.25564e-015 2.78299e-015
rhumerus -36.2539 19.9214 -79.917
rradius 42.5574
rwrist -22.0383
rhand -15.9149 1.5437
rfingers 7.12502
rthumb 10.2823 -28.185
lclavicle 7.25564e-015 2.78299e-015
lhumerus 56.4211 21.575 14.5834
lradius 46.6185
lwrist -2.0003
lhand -50.2237 -3.65301
lfingers 7.12502
lthumb -22.8037 25.0191
rfemur -3.65115 8.39778 23.756
rtibia 26.3146
rfoot -32.51 -30.1556
rtoes -13.4256
lfemur -5.00207 -10.0674 -18.062
ltibia 27.3262
lfoot -19.133 19.1069
ltoes -11.8351
185
root 16.6837 15.3915 -1.35752 194.974 -83.7779 -197.222
lowerback 9.57993 0.965892 -1.88569
upperback 3.4572 1.00711 0.568857
thorax -1.82501 0.442212 1.53941
lowerneck -9.17839 5.46393 6.7137
upperneck 8.57061 7.93274 -14.7862
head 4.96583 3.22077 -5.13814
rclavicle -1.41137e-014 -5.96354e-015
rhumerus -36.5558 19.7648 -80.2061
rradius 42.6291
rwrist -21.778
rhand -15.8231 1.86157
rfingers 7.12502
rthumb 10.3708 -27.8627
lclavicle -1.41137e-014 -5.96354e-015
lhumerus 55.8095 23.1568 15.1348
lradius 43.3076
lwrist -1.76645
lhand -50.3938 -2.14197
lfingers 7.12502
lthumb -22.967 26.5099
rfemur -3.91004 8.67606 23.6493
rtibia 26.4555
rfoot -31.7995 -29.7819
rtoes -14.506
lfemur -4.32754 -10.5881 -18.3091
ltibia 26.5417
lfoot -19.9204 20.3945
ltoes -9.98221
186
root 16.6821 15.3899 -1.32072 192.706 -83.0052 -194.947
lowerback 9.72246 1.01643 -1.83668
upperback 3.37495 1.0751 0.515317
thorax -1.98948 0.479059 1.44644
lowerneck -9.04197 5.57085 7.03688
upperneck 8.43234 8.02934 -14.7775
head 4.92328 3.29219 -5.18263
rclavicle 6.01324e-015 1.98785e-015
rhumerus -36.939 19.6342 -80.5383
rradius 42.8277
rwrist -21.7459
rhand -15.7141 1.90531
rfingers 7.12502
rthumb 10.476 -27.8137
lclavicle 6.01324e-015 1.98785e-015
lhumerus 55.2726 24.768 15.9927
lradius 39.876
lwrist -2.19316
lhand -50.3521 0.00711646
lfingers 7.12502
lthumb -22.927 28.6639
rfemur -4.12101 8.93035 23.5172
rtibia 26.6276
rfoot -31.1198 -29.5841
rtoes -15.5765
lfemur -3.71456 -10.9848 -18.5668
ltibia 25.8276
lfoot -20.4158 21.3701
ltoes -8.78828
187
root 16.6787 15.3937 -1.28541 192.576 -82.2262 -194.676
lowerback 9.66842 1.0259 -2.01979
upperback 3.29026 1.07205 0.43953
thorax -2.04909 0.479862 1.47142
lowerneck -8.95352 5.71509 7.31653
upperneck 8.19776 8.17286 -14.7867
head 4.86496 3.38471 -5.22005
rclavicle 1.2921e-014 3.97569e-015
rhumerus -37.2935 19.6555 -80.8532
rradius 43.0433
rwrist -21.9067
rhand -15.7326 2.37916
rfingers 7.12502
rthumb 10.4581 -27.3407
lclavicle 1.2921e-014 3.97569e-015
lhumerus 53.4032 26.1262 15.7989
lradius 37.5739
lwrist -2.08623
lhand -50.4888 2.7326
lfingers 7.12502
lthumb -23.0582 31.3731
rfemur -4.50741 9.28216 23.1522
rtibia 26.8682
rfoot -30.6054 -29.3697
rtoes -16.266
lfemur -3.31296 -11.1631 -18.9742
ltibia 25.1774
lfoot -20.7317 22.2645
ltoes -8.51727
188
root 16.6748 15.3947 -1.24956 192.123 -81.4673 -194.184
lowerback 9.78663 1.01634 -2.16324
upperback 3.18083 1.04333 0.393548
thorax -2.22787 0.469189 1.50551
lowerneck -8.83947 5.85313 7.46405
upperneck 8.02905 8.32627 -14.7391
head 4.81572 3.47865 -5.21724
rclavicle -2.98674e-014 1.39149e-014
rhumerus -37.7885 19.8597 -81.2378
rradius 43.235
rwrist -22.281
rhand -15.9469 3.05716
rfingers 7.12502
rthumb 10.2514 -26.673
lclavicle -2.98674e-014 1.39149e-014
lhumerus 50.9264 27.1925 15.0915
lradius 35.7184
lwrist -1.88488
lhand -50.2123 5.58388
lfingers 7.12502
lthumb -22.7928 34.2573
rfemur -4.81284 9.7398 22.8737
rtibia 27.1902
rfoot -30.2636 -29.2002
rtoes -16.8319
lfemur -2.80957 -11.1448 -19.3246
ltibia 24.5499
lfoot -20.8765 23.048
ltoes -8.95097
189
root 16.6684 15.3946 -1.21177 192.136 -80.715 -194.188
lowerback 9.88604 0.981709 -2.35903
upperback 3.10328 0.974453 0.325354
thorax -2.3619 0.437573 1.55143
lowerneck -8.81395 6.1043 7.63074
upperneck 7.87011 8.62668 -14.6391
head 4.80022 3.64447 -5.18554
rclavicle -2.78795e-014 9.93923e-015
rhumerus -38.2921 20.0082 -81.5606
rradius 43.5565
rwrist -22.4772
rhand -15.9629 3.21999
rfingers 7.12502
rthumb 10.2359 -26.511
lclavicle -2.78795e-014 9.93923e-015
lhumerus 49.2112 28.9134 16.5748
lradius 34.2914
lwrist -3.40051
lhand -49.9072 8.17423
lfingers 7.12502
lthumb -22.5001 36.8834
rfemur -5.05824 10.1926 22.5255
rtibia 27.4699
rfoot -29.9119 -29.1201
rtoes -17.6817
lfemur -2.33024 -11.0372 -19.7418
ltibia 24.0029
lfoot -21.0686 23.6297
ltoes -8.68879
190
root 16.6597 15.398 -1.17103 193.829 -79.9873 -195.873
lowerback 9.85351 0.935377 -2.75664
upperback 3.1099 0.868183 0.136478
thorax -2.33497 0.383925 1.59254
lowerneck -8.90387 6.26301 7.66367
upperneck 7.80568 8.80157 -14.3236
head 4.8016 3.74993 -5.07155
rclavicle -1.58034e-014 1.98785e-015
rhumerus -38.6425 19.9968 -81.8013
rradius 43.9556
rwrist -22.4464
rhand -15.8382 2.85025
rfingers 7.12502
rthumb 10.3562 -26.8747
lclavicle -1.58034e-014 1.98785e-015
lhumerus 46.2541 29.8291 16.24
lradius 33.6871
lwrist -2.35022
lhand -50.2584 11.7581
lfingers 7.12502
lthumb -22.837 40.4261
rfemur -5.23552 10.485 21.8232
rtibia 27.6034
rfoot -29.4584 -28.9806
rtoes -18.642
lfemur -2.03798 -10.9509 -20.4771
ltibia 23.6831
lfoot -21.3444 24.1626
ltoes -8.19905
191
root 16.6531 15.401 -1.12692 193.101 -79.373 -195.104
lowerback 9.89201 0.89723 -2.64303
upperback 3.08978 0.823086 0.0285964
thorax -2.37191 0.362044 1.42171
lowerneck -8.83191 6.44991 7.7917
upperneck 7.53863 8.99468 -14.0559
head 4.72215 3.87779 -4.99102
rclavicle 5.71506e-015 7.95139e-016
rhumerus -39.0125 20.0609 -82.1059
rradius 44.2613
rwrist -22.4666
rhand -15.9879 2.52595
rfingers 7.12502
rthumb 10.2118 -27.2062
lclavicle 5.71506e-015 7.95139e-016
lhumerus 43.1055 30.7346 16.0205
lradius 33.7407
lwrist -2.74636
lhand -49.9681 13.8398
lfingers 7.12502
lthumb -22.5584 42.5418
rfemur -5.37701 10.7317 21.5659
rtibia 27.6286
rfoot -28.8493 -28.8496
rtoes -19.8024
lfemur -1.87465 -10.8085 -20.7493
ltibia 23.5225
lfoot -21.5855 24.6756
ltoes -7.86742
192
root 16.6498 15.402 -1.08206 189.543 -78.7675 -191.494
lowerback 10.0485 0.868453 -1.99146
upperback 3.05979 0.846005 0.100156
thorax -2.48248 0.374282 1.12474
lowerneck -8.67771 6.6408 8.02274
upperneck 7.18322 9.19791 -14.0229
head 4.62022 4.00472 -5.00399
rclavicle -4.96962e-017 -7.55382e-015
rhumerus -39.3835 20.3428 -82.3977
rradius 44.5587
rwrist -22.7555
rhand -16.1561 2.44873
rfingers 7.12502
rthumb 10.0496 -27.2913
lclavicle -4.96962e-017 -7.55382e-015
lhumerus 39.1798 30.9949 15.2197
lradius 34.5961
lwrist -2.15248
lhand -49.7517 15.2846
lfingers 7.12502
lthumb -22.3507 44.0117
rfemur -5.4739 11.2234 21.969
rtibia 27.5978
rfoot -28.3886 -28.8381
rtoes -20.8596
lfemur -1.70795 -10.5616 -20.4082
ltibia 23.4241
lfoot -22.0064 25.0901
ltoes -6.83008
